<?xml version="1.0" encoding="utf-8"?>
<!-- Generator: Adobe Illustrator 16.0.0, SVG Export Plug-In . SVG Version: 6.00 Build 0)  -->
<!DOCTYPE svg PUBLIC "-//W3C//DTD SVG 1.1//EN" "http://www.w3.org/Graphics/SVG/1.1/DTD/svg11.dtd">
<svg version="1.1" id="图层_1" xmlns="http://www.w3.org/2000/svg" xmlns:xlink="http://www.w3.org/1999/xlink" x="0px" y="0px"
	 width="355px" height="512px" viewBox="0 0 355 512" enable-background="new 0 0 355 512" xml:space="preserve">
<path fill-rule="evenodd" clip-rule="evenodd" fill="#6AC09A" d="M266.505,62.89c20-2.875,28.625,5.125,27,21
	c-0.5,3.125-2.125,7.125-6,9c-38.521,8.179-95.005,24.235-97,54c20.079,12.854,68.662,78.703,47.329,93.444
	c-22.63,14.333-48.28,18.206-76.329,18.556c5.89,32.885,51.515,82.553,44,114c-4.36,7.03-17.59,18.82-28,10
	c-23.288-12.019-31.474-78.002-51-98c0,0.667,0,1.333,0,2c-13.264,19.178-28.549,93.574-46,101c-15.25,4.718-32.938-8.137-28-26
	c11.666-30.33,23.334-60.67,35-91c29.945-62.459,57.465-144.728,112-183C219.275,74.015,242.63,69.515,266.505,62.89z"/>
<path fill-rule="evenodd" clip-rule="evenodd" fill="#6AC09A" d="M245.7,173.2c-34.37,7.99-45.936-44.83-9.325-53.575
	C271,114.25,276.96,165.94,245.7,173.2z"/>
<path fill-rule="evenodd" clip-rule="evenodd" fill="#FFFFFF" d="M194,201c-5.333,7.333-10.667,14.667-16,22c0,0.333,0,0.667,0,1
	c1.333,0,2.667,0,4,0c8.333-1.667,16.667-3.333,25-5C205.128,211.134,199.697,205.119,194,201z"/>
</svg>
