<?xml version="1.0" encoding="utf-8"?>
<!-- Generator: Adobe Illustrator 16.0.0, SVG Export Plug-In . SVG Version: 6.00 Build 0)  -->
<!DOCTYPE svg PUBLIC "-//W3C//DTD SVG 1.1//EN" "http://www.w3.org/Graphics/SVG/1.1/DTD/svg11.dtd">
<svg version="1.1" id="图层_1" xmlns="http://www.w3.org/2000/svg" xmlns:xlink="http://www.w3.org/1999/xlink" x="0px" y="0px"
	 width="433px" height="432px" viewBox="0 0 433 432" enable-background="new 0 0 433 432" xml:space="preserve">
<path fill-rule="evenodd" clip-rule="evenodd" fill="#6AC09A" d="M126,96c73.902-2.159,78.44,92.137,17,106
	c-39.154,8.835-72.051-28.687-62-66C87.58,111.576,103,99.25,126,96z"/>
<path fill-rule="evenodd" clip-rule="evenodd" fill="#6AC09A" d="M138,279c35.671-0.647,160.926-13.997,145,29
	c-1.714,4.628-8.287,11.412-13,13c-15.194,5.121-137.764,2.668-145-3c-14.999-16.332-30.001-32.668-45-49c-1.5-0.25-3,0.583-4,2
	c-0.833,1.333-0.833,2.75,0,4c20.679,21.646,32.833,43.667,62,54c-0.333,19.332-0.667,38.668-1,58
	c-33.663-0.333-68.587,0.333-102.25,0C34.146,345.446,27.61,244.271,45,221c22.712-30.393,74.922-19.437,89,11
	C139.313,243.487,138.327,262.364,138,279z"/>
<path fill-rule="evenodd" clip-rule="evenodd" fill="#6AC09A" d="M382,204c2.333,0.333,11,4.333,13,6
	c-7.282,23.953-38.313,114.066-46,135c-28.333,0.167-141.5-0.875-162-1c-3.695-2.397-2.345-5.764-2.333-12c1.667-2,1.667-2,3.333-4
	c36.33,0,131.5,0.333,148.5,0.667C343.363,307.286,376.5,216,382,204z"/>
<path fill-rule="evenodd" clip-rule="evenodd" fill="#6AC09A" d="M373,374.667c-54.328,0-108.672,0-163,0c-20.944,0-66,2.75-66-5
	c0.333-4.666-0.333-9.209,0-13.875c0.667-1.333-0.096-2.75,3-4.125c43.25-0.75,201.336-1.333,226-1
	C373,358.666,373,366.667,373,374.667z"/>
<path fill-rule="evenodd" clip-rule="evenodd" fill="#6AC09A" d="M157.333,272.833"/>
<path fill-rule="evenodd" clip-rule="evenodd" fill="#6AC09A" d="M330.833,411.333"/>
</svg>
