<?xml version="1.0" encoding="utf-8"?>
<!-- Generator: Adobe Illustrator 16.0.0, SVG Export Plug-In . SVG Version: 6.00 Build 0)  -->
<!DOCTYPE svg PUBLIC "-//W3C//DTD SVG 1.1//EN" "http://www.w3.org/Graphics/SVG/1.1/DTD/svg11.dtd">
<svg version="1.1" id="图层_1" xmlns="http://www.w3.org/2000/svg" xmlns:xlink="http://www.w3.org/1999/xlink" x="0px" y="0px"
	 width="430px" height="461px" viewBox="0 0 430 461" enable-background="new 0 0 430 461" xml:space="preserve">
<path fill-rule="evenodd" clip-rule="evenodd" fill="#6AC09A" d="M169,125c58.488-0.467,97.935,33.984,112,78
	c9.574,29.96,5.188,78.704-14,95c-14.148-1.124-27.354-8.092-34-17c0.667-0.333,1.333-0.667,2-1c9.149-24.678,18.354-52.874,3-80
	c-22.979-40.596-88.408-49.058-121-11c-27.892,32.57-16.831,89.372,14,110c8.243,5.515,19.101,9.598,30,12c5,0.333,10,0.667,15,1
	c10.875,14.375,26.75,28.375,33,32c0,0.333,0,0.667,0,1c-19.093,2.577-42.988,7.867-64,2c-60.565-16.911-108.647-90.146-71-163
	c12.321-23.844,37.746-45.266,65-54C149.333,126.5,157.797,124.995,169,125z"/>
<path fill-rule="evenodd" clip-rule="evenodd" fill="#6AC09A" d="M268,125c128.031-1.786,158.18,154.98,63,211
	c-65.238,38.397-138.715-4.462-160-55c-12.528-29.745-10.261-85.367,11-104c13.586,2.529,27.024,7.746,34,17
	c-0.667,0.667-1.333,1.333-2,2c-10.335,27.81-19.49,55.647,0,84c25.464,37.044,91.432,41.203,120,4
	c27.756-36.146,11.861-90.688-20-110c-13.223-8.015-23.125-9.125-40-10c-0.611-0.032-30.482-29.072-34.75-32.75
	c0.333-0.667,1.417-0.583,1.75-1.25C249.875,127,259.25,124.995,268,125z"/>
</svg>
