<?xml version="1.0" encoding="utf-8"?>
<!-- Generator: Adobe Illustrator 16.0.0, SVG Export Plug-In . SVG Version: 6.00 Build 0)  -->
<!DOCTYPE svg PUBLIC "-//W3C//DTD SVG 1.1//EN" "http://www.w3.org/Graphics/SVG/1.1/DTD/svg11.dtd">
<svg version="1.1" id="图层_1" xmlns="http://www.w3.org/2000/svg" xmlns:xlink="http://www.w3.org/1999/xlink" x="0px" y="0px"
	 width="179px" height="313px" viewBox="0 0 179 313" enable-background="new 0 0 179 313" xml:space="preserve">
<path fill-rule="evenodd" clip-rule="evenodd" fill="#6AC09A" d="M86.271,42.375C89.5,48.317,93.25,76.5,104,99
	c17.415,36.451,71.027,88.045,36,139c-10.265,14.933-24.623,25.36-46,29c-47.416,8.074-82.437-38.501-71-84
	c9.15-36.404,39.167-58.833,50-92C77.333,75.001,81.938,58.374,86.271,42.375z"/>
<path fill-rule="evenodd" clip-rule="evenodd" fill="#FFFFFF" d="M74,132c-2,0-42.565,48.038-31,81c1.5,2.417,3.583,3.417,6,4
	c2.833,0.333,6.375-0.063,9-1c8.781-3.281,21-77.125,21-80C79,133.625,76.75,132,74,132z"/>
</svg>
