<?xml version="1.0" encoding="utf-8"?>
<!-- Generator: Adobe Illustrator 16.0.0, SVG Export Plug-In . SVG Version: 6.00 Build 0)  -->
<!DOCTYPE svg PUBLIC "-//W3C//DTD SVG 1.1//EN" "http://www.w3.org/Graphics/SVG/1.1/DTD/svg11.dtd">
<svg version="1.1" id="图层_1" xmlns="http://www.w3.org/2000/svg" xmlns:xlink="http://www.w3.org/1999/xlink" x="0px" y="0px"
	 width="319px" height="516px" viewBox="0 0 319 516" enable-background="new 0 0 319 516" xml:space="preserve">
<path fill-rule="evenodd" clip-rule="evenodd" fill="#6AC09A" d="M161,114c46.167-5.167,52.677,59.982,13,69
	c-30.929,7.03-50.472-29.64-36-53C143.312,121.425,151.875,116.25,161,114z"/>
<path fill-rule="evenodd" clip-rule="evenodd" fill="#6AC09A" d="M165.692,196.295C217.75,180.5,269.084,280.074,244,341
	c-5.589,13.574-16.634,27.959-28,36c-6,3.333-12,6.667-18,10c-10.368,21.976-6.52,74.771-28,85c-12.027,7.434-26.587-1.521-30-10
	c-7.318-24.685,6.167-61.309-2-88c-3-5.333-6-10.667-9-16c-8.395-25.081,3.776-44.151,9-61c0-7.999,0-16.001,0-24
	C138,228.673,135.442,207.295,165.692,196.295z"/>
</svg>
