<?xml version="1.0" encoding="utf-8"?>
<!-- Generator: Adobe Illustrator 16.0.0, SVG Export Plug-In . SVG Version: 6.00 Build 0)  -->
<!DOCTYPE svg PUBLIC "-//W3C//DTD SVG 1.1//EN" "http://www.w3.org/Graphics/SVG/1.1/DTD/svg11.dtd">
<svg version="1.1" id="图层_1" xmlns="http://www.w3.org/2000/svg" xmlns:xlink="http://www.w3.org/1999/xlink" x="0px" y="0px"
	 width="374px" height="500px" viewBox="0 0 374 500" enable-background="new 0 0 374 500" xml:space="preserve">
<path fill-rule="evenodd" clip-rule="evenodd" fill="#6AC09A" d="M186,70c53.308-1.114,84.333,16.667,100,56
	c-7-4.666-14-9.334-21-14c-15.075-9.133-33.99-16.63-54-19c-50.667-6-72.333,22.667-103,34c-0.194-0.875-0.438-2.063,0-3
	C128,78.75,164.333,71.5,186,70z"/>
<path fill-rule="evenodd" clip-rule="evenodd" fill="#6AC09A" d="M192,110c73.182-0.665,151.048,73.343,130,153
	c-1.333,0-2.667,0-4,0c-16.332-14.665-32.668-29.335-49-44c-24.981-21.369-56.394-38.141-82-58c-9.687-7.512-39.805-27.671-36-40
	C152.333,117.002,180,109.996,192,110z"/>
<path fill-rule="evenodd" clip-rule="evenodd" fill="#6AC09A" d="M130,133c0.781-0.813,2.469-0.563,3,0
	c3.333,3.667,10.375,10.344,10,11c-16.332,25.331-34.583,49.333-48.476,75.188C87.917,233.417,83.308,248.736,78,263
	c-0.25,0.328-0.25,0.328-0.625,0.672C76.25,264.859,74.563,264.688,74,263C55.21,194.049,102.047,166.72,130,133z"/>
<path fill-rule="evenodd" clip-rule="evenodd" fill="#6AC09A" d="M154,158c12.666,10.333,25.334,20.667,38,31
	c-42.178,3.611-56.009,32.599-85,47c0-0.333,0-0.667,0-1C120.272,206.832,139.332,184.056,154,158z"/>
<path fill-rule="evenodd" clip-rule="evenodd" fill="#6AC09A" d="M186.5,205.167c55.658-1.271,71.396,30.096,101,54
	c5.333,4.333,10.667,8.667,16,13c7.524,15.556-2.538,46.575-6,58c-13.481,44.487-38.946,87.818-87,97
	c-62.447,11.932-98.524-57.143-111-99c-3.124-10.479-12.195-42.473-4.25-57c3.167-4.25,6.5-7.5,10.5-11
	c17.626-16.405,35.257-33.544,56.75-46C170.499,211.167,181.75,205.375,186.5,205.167z"/>
<path fill-rule="evenodd" clip-rule="evenodd" fill="#FFFFFF" d="M150,251c-7.875,1.125-17.925,4.128-23,11
	c-15.296,20.709,4.989,54.661,31,50C195.857,305.216,197.455,249.261,150,251z"/>
<path fill-rule="evenodd" clip-rule="evenodd" fill="#FFFFFF" d="M237,251c-7.875,0.875-17.167,3.758-22,10
	c-15.713,20.291,2.407,55.867,30,51C282.936,305.309,284.542,249.268,237,251z"/>
<path fill-rule="evenodd" clip-rule="evenodd" fill="#6AC09A" d="M226.97,281.163c15.726,6.34,12.659,5.961,29.028,0.168
	c2.962-0.668,2.847,3.285,2.909,3.91c1.41,12.384-25.922,13.813-34.938,4.922c-0.545-0.708-1-3.333-0.292-5.583
	C223.678,283.83,225.22,280.788,226.97,281.163z"/>
<path fill-rule="evenodd" clip-rule="evenodd" fill="#6AC09A" d="M171.109,284.58c0.708,2.25,0.254,4.875-0.292,5.583
	c-9.016,8.892-36.348,7.462-34.938-4.922c0.063-0.625-0.053-4.578,2.909-3.91c16.37,5.793,13.302,6.172,29.028-0.168
	C169.568,280.788,171.109,283.83,171.109,284.58z"/>
<path fill-rule="evenodd" clip-rule="evenodd" fill="#FFFFFF" d="M186.037,370.167c-7.833,1-10.089,6.018-13.833,15.333
	c9.293,25.158,51.157,20.185,52.667-1.667c-3.03-6.605-4.549-10.552-11.461-13.317c-5.577-1.326-10.705,3.837-14.26,4.483
	C194.483,374,191.537,369,186.037,370.167z"/>
</svg>
