<?xml version="1.0" encoding="utf-8"?>
<!-- Generator: Adobe Illustrator 16.0.0, SVG Export Plug-In . SVG Version: 6.00 Build 0)  -->
<!DOCTYPE svg PUBLIC "-//W3C//DTD SVG 1.1//EN" "http://www.w3.org/Graphics/SVG/1.1/DTD/svg11.dtd">
<svg version="1.1" id="图层_1" xmlns="http://www.w3.org/2000/svg" xmlns:xlink="http://www.w3.org/1999/xlink" x="0px" y="0px"
	 width="355px" height="311px" viewBox="0 0 355 311" enable-background="new 0 0 355 311" xml:space="preserve">
<path fill-rule="evenodd" clip-rule="evenodd" fill="#6AC09A" d="M192,63c52.167,57.833,55.786,128.147,1,180
	c-10.611-7.947-16.972-20.369-24-32C132.52,150.625,159.976,105.538,192,63z"/>
<path fill-rule="evenodd" clip-rule="evenodd" fill="#6AC09A" d="M94,71c19.167,8,36.167,16.167,51,24
	c-12.434,26.658-20.021,65.659-8,99c5,10.333,10,20.667,15,31c-0.333,0-0.667,0-1,0C108.724,202.884,68.118,139.926,94,71z"/>
<path fill-rule="evenodd" clip-rule="evenodd" fill="#6AC09A" d="M235,225c-0.333,0-0.667,0-1,0c5-10.333,10-20.667,15-31
	c12.021-33.341,4.434-72.342-8-99c14.833-7.833,31.833-16,51-24C317.882,139.926,277.276,202.884,235,225z"/>
<path fill-rule="evenodd" clip-rule="evenodd" fill="#6AC09A" d="M72,171c1,0,2,0,3,0c4.666,8.666,9.334,17.334,14,26
	c14.29,21.491,40.384,44.367,67,53c-0.333,0.667-0.667,1.333-1,2c-54.195,1.042-101.955-27.955-110-73
	C53.999,176.333,63.001,173.667,72,171z"/>
<path fill-rule="evenodd" clip-rule="evenodd" fill="#6AC09A" d="M309,171c10.666,2.667,21.334,5.333,32,8
	c-6.446,30.951-63.781,91.605-111,72c0-0.333,0-0.667,0-1C266.543,238.409,294.952,205.778,309,171z"/>
</svg>
